<?xml version="1.0" encoding="UTF-8" standalone="no"?>
<svg
   width="400"
   height="450"
   version="1.1"
   id="svg26"
   sodipodi:docname="404.svg"
   inkscape:version="1.1.2 (0a00cf5339, 2022-02-04)"
   xmlns:inkscape="http://www.inkscape.org/namespaces/inkscape"
   xmlns:sodipodi="http://sodipodi.sourceforge.net/DTD/sodipodi-0.dtd"
   xmlns="http://www.w3.org/2000/svg"
   xmlns:svg="http://www.w3.org/2000/svg">
  <defs
     id="defs30" />
  <sodipodi:namedview
     id="namedview28"
     pagecolor="#505050"
     bordercolor="#ffffff"
     borderopacity="1"
     inkscape:pageshadow="0"
     inkscape:pageopacity="0"
     inkscape:pagecheckerboard="1"
     showgrid="false"
     width="500px"
     inkscape:current-layer="svg26" />
  <g
     transform="matrix(0.5,0,0,0.5,-7.14512,-158.4021)"
     id="g24">
    <g
       transform="matrix(1.46652,0,0,1.46652,-5767.52,10137.899)"
       fill="#f8e45c"
       fill-opacity="0.957"
       id="g8">
      <rect
         ry="20.506001"
         rx="20.506001"
         y="-6263.2778"
         x="4065.124"
         height="41.012001"
         width="261.63"
         style="marker:none"
         id="rect2" />
      <rect
         style="marker:none"
         width="261.63"
         height="41.012001"
         x="4149.124"
         y="-6240.2778"
         rx="20.506001"
         ry="20.506001"
         id="rect4" />
      <rect
         ry="20.506001"
         rx="20.506001"
         y="-6226.2778"
         x="4028.124"
         height="41.012001"
         width="261.63"
         style="marker:none"
         id="rect6" />
    </g>
    <g
       transform="matrix(1.53139,0,0,1.53139,-1294.741,525.79)"
       id="g18">
      <path
         style="marker:none"
         d="m 1084,65.616 a 27.16,27.16 0 0 0 -27.063,24.9 l -16,192 A 27.16,27.16 0 0 0 1068,311.93 h 96 a 27.16,27.16 0 0 0 27.063,-29.412 l -16,-192 A 27.16,27.16 0 0 0 1148,65.618 h -32 z"
         fill-opacity="0.102"
         id="path10" />
      <path
         d="m 1084,61.125 a 27.16,27.16 0 0 0 -27.063,24.9 l -16,192 A 27.16,27.16 0 0 0 1068,307.438 h 96 a 27.16,27.16 0 0 0 27.063,-29.413 l -16,-192 A 27.16,27.16 0 0 0 1148,61.125 h -32 z"
         fill="#deddda"
         id="path12" />
      <rect
         ry="32"
         rx="32"
         y="-104"
         x="908"
         height="352"
         width="416"
         style="marker:none"
         fill="#f6f5f4"
         id="rect14" />
      <path
         style="marker:none"
         d="m 936.534,-104.55598 h 358.932 a 28.795,28.795 0 0 1 28.859,28.858997 V 189.03302 H 907.675 V -75.695983 a 28.795,28.795 0 0 1 28.859,-28.858997 z"
         fill="#241f31"
         id="path16" />
    </g>
    <path
       style="marker:none"
       d="m 446.112,591.108 a 42.172,42.172 0 0 1 59.64,0 m -187.44,0 a 42.172,42.172 0 0 1 59.64,0"
       fill="none"
       stroke="#ffffff"
       stroke-width="14.665"
       stroke-linecap="round"
       id="path20" />
    <circle
       style="marker:none"
       cx="411.16901"
       cy="696.87"
       r="19.421"
       fill="none"
       stroke="#ffffff"
       stroke-width="14.665"
       stroke-linecap="round"
       id="circle22" />
  </g>
</svg>
