<?xml version="1.0" encoding="UTF-8"?>
<svg height="128px" viewBox="0 0 128 128" width="128px" xmlns="http://www.w3.org/2000/svg" xmlns:xlink="http://www.w3.org/1999/xlink">
    <linearGradient id="a" gradientUnits="userSpaceOnUse">
        <stop offset="0" stop-color="#ffffff"/>
        <stop offset="0.4" stop-color="#ffffff"/>
        <stop offset="1" stop-color="#f6f5f4"/>
    </linearGradient>
    <radialGradient id="b" cx="108" cy="12" r="12" xlink:href="#a"/>
    <radialGradient id="c" cx="108" cy="100" r="12" xlink:href="#a"/>
    <radialGradient id="d" cx="84" cy="78" r="8" xlink:href="#a"/>
    <radialGradient id="e" cx="84" cy="38" r="8" xlink:href="#a"/>
    <radialGradient id="f" cx="20" cy="12" r="12" xlink:href="#a"/>
    <radialGradient id="g" cx="20" cy="100" r="12" xlink:href="#a"/>
    <radialGradient id="h" cx="44" cy="38" r="8" xlink:href="#a"/>
    <radialGradient id="i" cx="44" cy="78" r="8" xlink:href="#a"/>
    <path d="m 84 84 l 24 24" fill="none" stroke="#f6f5f4" stroke-width="8"/>
    <path d="m 84 44 l 24 -24" fill="none" stroke="#f6f5f4" stroke-width="8"/>
    <path d="m 44 84 l -24 24" fill="none" stroke="#f6f5f4" stroke-width="8"/>
    <path d="m 44 44 l -24 -24" fill="none" stroke="#f6f5f4" stroke-width="8"/>
    <path d="m 44 44 h 40 v 40 h -40 z m 0 0" fill="none" stroke="#f6f5f4" stroke-width="8"/>
    <path d="m 20 20 h 88 v 88 h -88 z m 0 0" fill="none" stroke="#f6f5f4" stroke-width="8"/>
    <g fill="#d5d3cf">
        <path d="m 98.5 22 v 2 h -69 v -2 z m 0 0"/>
        <path d="m 120 20 c 0 6.628906 -5.371094 12 -12 12 c -1.847656 0 -3.222656 -0.09375 -5.164062 -1.164062 c -1.09375 -1.726563 -3.550782 -4.585938 -5.667969 -5.667969 c -1.074219 -1.945313 -1.167969 -3.316407 -1.167969 -5.167969 c 0 -6.628906 5.371094 -12 12 -12 s 12 5.371094 12 12 z m 0 0"/>
        <path d="m 110 31 h 2 v 69 h -2 z m 0 0"/>
        <path d="m 120 108 c 0 6.628906 -5.371094 12 -12 12 s -12 -5.371094 -12 -12 s 5.371094 -12 12 -12 s 12 5.371094 12 12 z m 0 0"/>
        <path d="m 79 86 v 2 h -30 v -2 z m 0 0"/>
        <path d="m 99.605469 102.425781 l -1.414063 1.414063 l -15 -15 l 1.414063 -1.414063 z m 0 0"/>
        <path d="m 103.058594 27.792969 l 1.414062 1.414062 l -15 15 l -1.414062 -1.414062 z m 0 0"/>
    </g>
    <path d="m 120 18 c 0 6.628906 -5.371094 12 -12 12 s -12 -5.371094 -12 -12 s 5.371094 -12 12 -12 s 12 5.371094 12 12 z m 0 0" fill="url(#b)"/>
    <path d="m 86 50 h 2 v 26 h -2 z m 0 0" fill="#d5d3cf"/>
    <path d="m 79 46 v 2 h -30 v -2 z m 0 0" fill="#d5d3cf"/>
    <path d="m 92 44 c 0 4.417969 -3.582031 8 -8 8 s -8 -3.582031 -8 -8 s 3.582031 -8 8 -8 s 8 3.582031 8 8 z m 0 0" fill="#d5d3cf"/>
    <path d="m 98.5 110 v 2 h -69 v -2 z m 0 0" fill="#d5d3cf"/>
    <path d="m 120 106 c 0 6.628906 -5.371094 12 -12 12 s -12 -5.371094 -12 -12 s 5.371094 -12 12 -12 s 12 5.371094 12 12 z m 0 0" fill="url(#c)"/>
    <path d="m 92 84 c 0 0.667969 0 1 -0.234375 1.929688 c -1.164063 0.59375 -4.765625 4.542968 -5.789063 5.824218 c -0.5 0.246094 -1.292968 0.246094 -1.976562 0.246094 c -4.417969 0 -8 -3.582031 -8 -8 s 3.582031 -8 8 -8 s 8 3.582031 8 8 z m 0 0" fill="#d5d3cf"/>
    <path d="m 92 82 c 0 4.417969 -3.582031 8 -8 8 s -8 -3.582031 -8 -8 s 3.582031 -8 8 -8 s 8 3.582031 8 8 z m 0 0" fill="url(#d)"/>
    <path d="m 92 42 c 0 4.417969 -3.582031 8 -8 8 s -8 -3.582031 -8 -8 s 3.582031 -8 8 -8 s 8 3.582031 8 8 z m 0 0" fill="url(#e)"/>
    <path d="m 22 31 h 2 v 69 h -2 z m 0 0" fill="#d5d3cf"/>
    <path d="m 32 108 c 0 6.628906 -5.371094 12 -12 12 s -12 -5.371094 -12 -12 s 5.371094 -12 12 -12 s 12 5.371094 12 12 z m 0 0" fill="#d5d3cf"/>
    <path d="m 46 50 h 2 v 26 h -2 z m 0 0" fill="#d5d3cf"/>
    <path d="m 52 44 c 0 4.417969 -3.582031 8 -8 8 s -8 -3.582031 -8 -8 s 3.582031 -8 8 -8 s 8 3.582031 8 8 z m 0 0" fill="#d5d3cf"/>
    <path d="m 43.585938 87.585938 l 1.414062 1.414062 l -15 15 l -1.414062 -1.414062 z m 0 0" fill="#d5d3cf"/>
    <path d="m 7.910156 20 c 0 6.628906 5.375 12 12 12 c 1.851563 0 3.222656 -0.09375 5.167969 -1.164062 c 1.089844 -1.726563 3.546875 -4.585938 5.667969 -5.667969 c 1.070312 -1.945313 1.164062 -3.316407 1.164062 -5.167969 c 0 -6.628906 -5.371094 -12 -12 -12 c -6.625 0 -12 5.371094 -12 12 z m 0 0" fill="#d5d3cf"/>
    <path d="m 40.078125 42.953125 l -1.414063 1.414063 l -15 -15 l 1.414063 -1.414063 z m 0 0" fill="#d5d3cf"/>
    <path d="m 32 18 c 0 6.628906 -5.371094 12 -12 12 s -12 -5.371094 -12 -12 s 5.371094 -12 12 -12 s 12 5.371094 12 12 z m 0 0" fill="url(#f)"/>
    <path d="m 32 106 c 0 6.628906 -5.371094 12 -12 12 s -12 -5.371094 -12 -12 s 5.371094 -12 12 -12 s 12 5.371094 12 12 z m 0 0" fill="url(#g)"/>
    <path d="m 52 42 c 0 4.417969 -3.582031 8 -8 8 s -8 -3.582031 -8 -8 s 3.582031 -8 8 -8 s 8 3.582031 8 8 z m 0 0" fill="url(#h)"/>
    <path d="m 36 84 c 0 0.667969 0 1 0.234375 1.929688 c 1.164063 0.59375 4.765625 4.542968 5.789063 5.824218 c 0.5 0.246094 1.292968 0.246094 1.976562 0.246094 c 4.417969 0 8 -3.582031 8 -8 s -3.582031 -8 -8 -8 s -8 3.582031 -8 8 z m 0 0" fill="#d5d3cf"/>
    <path d="m 52 82 c 0 4.417969 -3.582031 8 -8 8 s -8 -3.582031 -8 -8 s 3.582031 -8 8 -8 s 8 3.582031 8 8 z m 0 0" fill="url(#i)"/>
</svg>
